<svg version="1.0" xmlns="http://www.w3.org/2000/svg" width="1400.000000pt" height="142.000000pt"
                viewBox="0 0 1400.000000 142.000000" preserveAspectRatio="xMidYMid meet">
                <g transform="translate(0.000000,142.000000) scale(0.100000,-0.100000)" fill="#ffffff" stroke="none">
                    <path class="wave-color" d="M13065 1405 c-212 -29 -496 -113 -635 -186 -165 -88 -338 -202 -520
            -344 -208 -162 -259 -193 -437 -263 -421 -168 -959 -160 -1663 24 -207 54
            -386 110 -505 159 -16 7 -104 38 -195 68 -91 31 -235 82 -320 113 -443 161
            -691 220 -966 231 -293 11 -658 -59 -1039 -199 -173 -63 -453 -187 -490 -216
            -15 -12 -32 -22 -37 -22 -14 0 -534 -304 -643 -376 -127 -84 -437 -209 -653
            -263 -387 -98 -821 -107 -1232 -25 -289 57 -677 181 -875 279 -38 19 -171 78
            -295 131 -124 53 -277 119 -340 146 -63 28 -157 65 -208 84 -51 19 -105 40
            -120 48 -34 18 -295 82 -432 106 -298 53 -678 68 -935 36 -156 -20 -341 -58
            -447 -92 l-78 -26 0 -409 0 -409 7000 0 7000 0 0 649 0 648 -72 21 c-40 12
            -109 30 -153 41 -194 48 -533 70 -710 46z"></path>
                </g>
            </svg>